#!OML:ASF F:\VICON\USERDATA\INSTALL\rory3\rory3.ASF
:FULLY-SPECIFIED
:DEGREES
258
root -0.740066 18.298 -14.4641 2.53781 4.65629 -3.19548
lowerback 6.70565 -0.272948 -1.98442
upperback -0.471228 -0.30564 5.07095
thorax -4.22361 -0.0462733 6.46752
lowerneck -16.7544 -5.56879 -14.4621
upperneck 27.488 -5.98404 7.78446
head 12.6284 -3.19383 4.48939
rclavicle 4.67144e-015 -3.65764e-014
rhumerus -40.5812 -24.4109 -65.0623
rradius 24.7774
rwrist -8.68603
rhand -11.1706 17.5015
rfingers 7.12502
rthumb 14.8562 -11.9459
lclavicle 4.67144e-015 -3.65764e-014
lhumerus -37.6894 9.14497 80.5928
lradius 27.9529
lwrist -10.4449
lhand 3.22971 31.6983
lfingers 7.12502
lthumb 28.68 59.5167
rfemur -19.048 1.27293 25.2343
rtibia 26.8309
rfoot -6.68535 -6.35335
rtoes 26.7297
lfemur -7.14298 -2.79315 -16.0597
ltibia 58.3071
lfoot 14.8157 -5.63651
ltoes 9.75482
259
root -0.732639 18.3029 -14.3315 2.61799 3.65127 -3.36645
lowerback 6.81656 0.0990753 -1.69567
upperback -0.401271 0.212166 5.02207
thorax -4.27691 0.20457 6.19566
lowerneck -16.8123 -5.59299 -14.4967
upperneck 27.4627 -6.00391 7.80691
head 12.6352 -3.20144 4.49942
rclavicle 7.85199e-015 -5.56597e-015
rhumerus -40.202 -23.5545 -65.8261
rradius 25.6908
rwrist -9.31393
rhand -11.298 16.6535
rfingers 7.12502
rthumb 14.7334 -12.8029
lclavicle 7.85199e-015 -5.56597e-015
lhumerus -37.5421 9.29372 80.6539
lradius 28.0741
lwrist -10.4783
lhand 3.34515 31.6495
lfingers 7.12502
lthumb 28.7903 59.4491
rfemur -18.7353 1.4479 25.4763
rtibia 26.8501
rfoot -6.78184 -5.48766
rtoes 24.7765
lfemur -8.73847 -1.37019 -15.9977
ltibia 59.8463
lfoot 13.3211 -5.06937
ltoes 9.50802
260
root -0.735015 18.3055 -14.1855 2.66817 3.42599 -3.36057
lowerback 6.81003 0.247788 -1.58845
upperback -0.363905 0.414004 4.91704
thorax -4.25636 0.30023 5.99961
lowerneck -16.7168 -5.66362 -14.449
upperneck 27.4407 -6.11044 7.73047
head 12.6173 -3.25417 4.44305
rclavicle -3.27995e-015 4.29375e-014
rhumerus -39.9133 -22.6083 -66.6464
rradius 26.5781
rwrist -10.3945
rhand -11.3519 16.2826
rfingers 7.12502
rthumb 14.6815 -13.1776
lclavicle -3.27995e-015 4.29375e-014
lhumerus -37.3966 9.31521 80.6626
lradius 28.0582
lwrist -10.6225
lhand 3.37863 31.3533
lfingers 7.12502
lthumb 28.8223 59.1475
rfemur -18.2861 1.46758 25.5381
rtibia 26.916
rfoot -7.27621 -5.29294
rtoes 24.1234
lfemur -10.2349 -0.678366 -16.0279
ltibia 61.1428
lfoot 11.8668 -4.66412
ltoes 9.45542
261
root -0.744825 18.3022 -14.0339 2.65747 3.2724 -3.52673
lowerback 6.77766 0.364677 -1.40324
upperback -0.35901 0.583914 4.89211
thorax -4.25031 0.38017 5.84806
lowerneck -16.4428 -5.68979 -14.5391
upperneck 27.3691 -6.17854 7.7907
head 12.5473 -3.29001 4.47154
rclavicle 3.27995e-015 -2.94201e-014
rhumerus -39.6026 -22.0444 -67.103
rradius 26.8199
rwrist -11.0822
rhand -11.3679 16.626
rfingers 7.12502
rthumb 14.666 -12.8354
lclavicle 3.27995e-015 -2.94201e-014
lhumerus -37.3777 9.50815 80.6176
lradius 27.986
lwrist -10.9047
lhand 3.15929 30.8914
lfingers 7.12502
lthumb 28.6128 58.7211
rfemur -17.7495 1.70672 25.8133
rtibia 27.0364
rfoot -7.9539 -5.3969
rtoes 24.7532
lfemur -11.561 0.0236077 -15.7863
ltibia 62.2272
lfoot 9.86634 -4.68133
ltoes 10.2646
262
root -0.759243 18.2982 -13.8819 2.60635 3.23001 -3.71636
lowerback 6.78803 0.425271 -1.30878
upperback -0.386888 0.67576 4.93465
thorax -4.29514 0.425717 5.82983
lowerneck -16.1418 -5.67055 -14.5526
upperneck 27.2692 -6.15141 7.66872
head 12.4384 -3.29801 4.43034
rclavicle -1.49089e-015 -3.97569e-015
rhumerus -39.3073 -21.8711 -67.1882
rradius 26.7878
rwrist -11.1311
rhand -11.3171 16.8121
rfingers 7.12502
rthumb 14.715 -12.6457
lclavicle -1.49089e-015 -3.97569e-015
lhumerus -37.6041 9.62841 80.6745
lradius 28.3026
lwrist -10.7108
lhand 3.00626 31.1761
lfingers 7.12502
lthumb 28.4665 59.0303
rfemur -17.1484 2.01943 26.129
rtibia 27.165
rfoot -8.66857 -5.63344
rtoes 25.1787
lfemur -12.8282 0.597714 -15.5103
ltibia 63.0923
lfoot 8.63385 -4.90655
ltoes 9.21513
263
root -0.772356 18.3007 -13.7321 2.62337 3.3603 -3.73444
lowerback 6.80884 0.470862 -1.32905
upperback -0.456243 0.736139 4.89239
thorax -4.38571 0.45866 5.79089
lowerneck -15.9417 -5.7344 -14.6014
upperneck 27.4069 -6.23661 7.57137
head 12.4642 -3.35959 4.39217
rclavicle 3.77691e-015 5.00937e-014
rhumerus -39.074 -21.8168 -67.2817
rradius 26.9135
rwrist -11.1851
rhand -11.1864 17.0658
rfingers 7.12502
rthumb 14.8409 -12.3827
lclavicle 3.77691e-015 5.00937e-014
lhumerus -37.7548 9.61203 80.7305
lradius 28.5836
lwrist -10.4198
lhand 2.94225 31.4367
lfingers 7.12502
lthumb 28.4054 59.3012
rfemur -16.6352 2.1267 26.249
rtibia 27.3078
rfoot -9.38378 -5.84818
rtoes 25.0899
lfemur -14.3019 0.914555 -15.4813
ltibia 63.7813
lfoot 7.45863 -4.97995
ltoes 8.09743
264
root -0.78632 18.2979 -13.5857 2.669 3.51001 -3.83219
lowerback 6.81004 0.513499 -1.26891
upperback -0.483321 0.798776 4.88074
thorax -4.42055 0.48943 5.73744
lowerneck -15.9088 -5.85191 -14.8265
upperneck 27.6209 -6.39365 7.69998
head 12.5809 -3.44217 4.46144
rclavicle 3.37934e-015 4.45278e-014
rhumerus -38.7364 -21.4482 -67.6055
rradius 27.2516
rwrist -11.6304
rhand -11.2197 17.4058
rfingers 7.12502
rthumb 14.8089 -12.0451
lclavicle 3.37934e-015 4.45278e-014
lhumerus -37.756 9.65346 80.8242
lradius 28.757
lwrist -10.2278
lhand 2.78147 31.4755
lfingers 7.12502
lthumb 28.2517 59.3654
rfemur -16.2345 2.25752 26.4641
rtibia 27.503
rfoot -10.303 -6.51071
rtoes 23.7628
lfemur -15.8253 1.25471 -15.3565
ltibia 64.331
lfoot 4.66002 -5.36267
ltoes 8.36031
265
root -0.801977 18.2806 -13.442 2.66532 3.71518 -4.11579
lowerback 6.87581 0.494697 -1.03982
upperback -0.499923 0.796556 4.92934
thorax -4.47229 0.484677 5.65828
lowerneck -15.9651 -5.85693 -14.8547
upperneck 27.7596 -6.39827 7.73094
head 12.6519 -3.44511 4.48135
rclavicle -1.90833e-014 -2.38542e-014
rhumerus -38.3464 -21.0005 -67.9754
rradius 27.5222
rwrist -11.99
rhand -11.4115 17.5207
rfingers 7.12502
rthumb 14.6241 -11.9437
lclavicle -1.90833e-014 -2.38542e-014
lhumerus -37.7465 9.90844 80.8073
lradius 28.8437
lwrist -10.1192
lhand 2.60551 31.6631
lfingers 7.12502
lthumb 28.0835 59.5807
rfemur -15.8692 2.47764 26.9062
rtibia 27.764
rfoot -10.9895 -7.33163
rtoes 22.2516
lfemur -17.0802 1.59227 -15.0117
ltibia 64.7427
lfoot 4.00318 -5.59071
ltoes 6.19778
266
root -0.816694 18.2606 -13.3013 2.76359 3.96696 -4.39085
lowerback 6.92146 0.452888 -0.781964
upperback -0.589382 0.768035 4.95905
thorax -4.58544 0.467821 5.5462
lowerneck -16.0628 -5.79589 -14.7703
upperneck 27.9828 -6.29994 7.6419
head 12.7423 -3.40645 4.45412
rclavicle 3.77691e-015 -4.77083e-015
rhumerus -38.0053 -20.6292 -68.2649
rradius 27.8382
rwrist -12.0568
rhand -11.4439 17.3569
rfingers 7.12502
rthumb 14.5929 -12.1097
lclavicle 3.77691e-015 -4.77083e-015
lhumerus -37.7554 10.1316 80.7724
lradius 28.9853
lwrist -9.96119
lhand 2.45851 31.6611
lfingers 7.12502
lthumb 27.943 59.6018
rfemur -15.6065 2.67619 27.3444
rtibia 28.0295
rfoot -11.3408 -7.55842
rtoes 22.4702
lfemur -18.4629 1.84579 -14.7132
ltibia 65.0372
lfoot 2.04501 -5.57027
ltoes 6.50118
267
root -0.830927 18.2446 -13.1619 2.94684 4.13902 -4.513
lowerback 6.87879 0.47516 -0.715775
upperback -0.716984 0.808718 4.97659
thorax -4.69844 0.490463 5.52381
lowerneck -15.9765 -5.79213 -14.8073
upperneck 28.1437 -6.26931 7.53518
head 12.7848 -3.41504 4.42888
rclavicle 1.11319e-014 2.22639e-014
rhumerus -37.7981 -20.0481 -68.5152
rradius 28.4772
rwrist -12.238
rhand -11.4947 16.9317
rfingers 7.12502
rthumb 14.5439 -12.5385
lclavicle 1.11319e-014 2.22639e-014
lhumerus -37.8543 10.1258 80.9125
lradius 29.3215
lwrist -9.58216
lhand 2.26322 31.5421
lfingers 7.12502
lthumb 27.7563 59.513
rfemur -15.3682 2.85715 27.6054
rtibia 28.2232
rfoot -12.173 -7.81608
rtoes 21.9534
lfemur -20.0009 2.05651 -14.6479
ltibia 65.1697
lfoot 0.210778 -5.52487
ltoes 5.26389
268
root -0.835101 18.228 -13.0093 2.87001 4.14026 -4.70821
lowerback 6.94027 0.560328 -0.495967
upperback -0.771544 0.945449 4.98362
thorax -4.80074 0.555103 5.39087
lowerneck -15.7572 -5.83242 -14.7878
upperneck 28.2095 -6.32441 7.3864
head 12.7687 -3.46112 4.36138
rclavicle -9.34288e-015 -3.89618e-014
rhumerus -37.7375 -19.3892 -68.7847
rradius 29.1612
rwrist -12.6822
rhand -11.8633 17.1295
rfingers 7.12502
rthumb 14.1887 -12.366
lclavicle -9.34288e-015 -3.89618e-014
lhumerus -38.1051 9.82429 81.1272
lradius 29.7789
lwrist -8.83644
lhand 1.96856 31.7383
lfingers 7.12502
lthumb 27.4745 59.7543
rfemur -14.6966 3.10355 27.8916
rtibia 28.3373
rfoot -12.6977 -8.06183
rtoes 18.8701
lfemur -21.0621 2.27504 -14.5742
ltibia 65.1005
lfoot -1.70168 -5.35368
ltoes 3.07242
